<svg width="256" height="298" viewBox="0 0 256 298" fill="none" xmlns="http://www.w3.org/2000/svg"><path d="M128 0c70.692 0 128 57.18 128 127.714 0 52.863-40.386 108.269-119.467 167.448a14.25 14.25 0 0 1-17.066 0C40.386 235.983 0 180.577 0 127.714 0 57.18 57.308 0 128 0m0 85.143c-23.564 0-42.667 19.06-42.667 42.571 0 23.512 19.103 42.572 42.667 42.572s42.667-19.06 42.667-42.572c0-23.511-19.103-42.571-42.667-42.571" fill="#E82828"/><path d="M111.699 111.759c3.529 0 6.39-2.854 6.39-6.375s-2.861-6.376-6.39-6.376-6.389 2.854-6.389 6.376c0 3.521 2.86 6.375 6.389 6.375m28.755 0c3.529 0 6.39-2.854 6.39-6.375s-2.861-6.376-6.39-6.376-6.39 2.854-6.39 6.376c0 3.521 2.861 6.375 6.39 6.375m-36.017 17.518c-.389-4.271 2.974-7.955 7.263-7.955s7.651 3.684 7.262 7.955l-2.035 22.338a5.25 5.25 0 0 1-10.455 0zm26.833-1.389a8 8 0 0 1 7.87-6.566h2.627a8 8 0 0 1 7.87 6.566l1.511 8.291a2.27 2.27 0 0 1-2.232 2.676 2.27 2.27 0 0 0-2.261 2.064l-.974 10.696a5.25 5.25 0 0 1-10.455 0l-.974-10.696a2.27 2.27 0 0 0-2.26-2.064 2.27 2.27 0 0 1-2.233-2.676z" fill="#E82828"/></svg>